<svg xmlns="http://www.w3.org/2000/svg" width="1024" height="1024" viewBox="0 0 1024 1024">
  <defs>
    <radialGradient id="bg-glow" cx="50%" cy="50%" r="65%">
      <stop offset="0%" stop-color="#1b2150" />
      <stop offset="45%" stop-color="#0d1434" />
      <stop offset="100%" stop-color="#050921" />
    </radialGradient>
    <radialGradient id="star-big" cx="50%" cy="50%" r="50%">
      <stop offset="0%" stop-color="#fff9d6"/>
      <stop offset="40%" stop-color="#ffeaa0" stop-opacity="0.8"/>
      <stop offset="100%" stop-color="#ffeaa0" stop-opacity="0"/>
    </radialGradient>
    <radialGradient id="star-mid" cx="50%" cy="50%" r="50%">
      <stop offset="0%" stop-color="#ffffff"/>
      <stop offset="60%" stop-color="#9fb8ff" stop-opacity="0.6"/>
      <stop offset="100%" stop-color="#9fb8ff" stop-opacity="0"/>
    </radialGradient>
    <filter id="soft-glow" x="-50%" y="-50%" width="200%" height="200%">
      <feGaussianBlur stdDeviation="1.4"/>
    </filter>
  </defs>
  <rect width="1024" height="1024" fill="url(#bg-glow)"/>
  <g opacity="0.65">
    <path fill="#101a42" d="M0 220c220-120 380-120 620 30s360 160 404 138v636H0Z"/>
    <path fill="#0c1333" d="M0 420c140-66 280-66 460 42s300 126 404 112v450H0Z"/>
  </g>
  <g fill="url(#star-big)" opacity="0.95">
    <circle cx="160" cy="148" r="46"/>
    <circle cx="830" cy="220" r="40"/>
    <circle cx="702" cy="720" r="44"/>
    <circle cx="286" cy="620" r="38"/>
  </g>
  <g fill="url(#star-mid)" opacity="0.8">
    <circle cx="460" cy="180" r="30"/>
    <circle cx="112" cy="382" r="26"/>
    <circle cx="910" cy="460" r="24"/>
    <circle cx="570" cy="520" r="32"/>
    <circle cx="380" cy="860" r="28"/>
  </g>
  <g fill="#fff7d4" opacity="0.9">
    <path d="M544 120l12 30 32 5-24 22 6 32-28-16-28 16 6-32-24-22 32-5z" />
    <path d="M214 344l10 26 26 4-20 18 5 26-24-13-24 13 5-26-20-18 26-4z" />
    <path d="M842 612l10 26 27 4-21 20 5 27-24-14-25 14 5-27-21-20 27-4z" />
    <path d="M492 900l8 22 22 4-17 14 4 22-20-11-20 11 4-22-17-14 22-4z" />
  </g>
  <g fill="#fefdf8" opacity="0.55" filter="url(#soft-glow)">
    <circle cx="72" cy="92" r="4"/>
    <circle cx="212" cy="98" r="5"/>
    <circle cx="324" cy="250" r="4"/>
    <circle cx="510" cy="282" r="5"/>
    <circle cx="644" cy="132" r="4"/>
    <circle cx="894" cy="180" r="6"/>
    <circle cx="940" cy="360" r="5"/>
    <circle cx="812" cy="470" r="4"/>
    <circle cx="128" cy="560" r="5"/>
    <circle cx="240" cy="480" r="3"/>
    <circle cx="420" cy="420" r="4"/>
    <circle cx="312" cy="760" r="5"/>
    <circle cx="640" cy="602" r="4"/>
    <circle cx="734" cy="840" r="6"/>
    <circle cx="896" cy="770" r="4"/>
    <circle cx="520" cy="742" r="4"/>
    <circle cx="146" cy="870" r="5"/>
    <circle cx="460" cy="980" r="4"/>
    <circle cx="270" cy="940" r="3"/>
    <circle cx="70" cy="650" r="4"/>
    <circle cx="972" cy="640" r="4"/>
    <circle cx="860" cy="920" r="4"/>
  </g>
  <g fill="#ffffff" opacity="0.32">
    <circle cx="60" cy="210" r="3"/>
    <circle cx="150" cy="260" r="2.6"/>
    <circle cx="230" cy="180" r="2.8"/>
    <circle cx="420" cy="150" r="2.4"/>
    <circle cx="520" cy="70" r="3.2"/>
    <circle cx="640" cy="210" r="2.8"/>
    <circle cx="720" cy="320" r="2.6"/>
    <circle cx="820" cy="280" r="2.6"/>
    <circle cx="930" cy="260" r="2.8"/>
    <circle cx="980" cy="140" r="2.2"/>
    <circle cx="60" cy="480" r="2.4"/>
    <circle cx="190" cy="520" r="2.6"/>
    <circle cx="350" cy="540" r="2.2"/>
    <circle cx="410" cy="620" r="2.4"/>
    <circle cx="500" cy="580" r="2.3"/>
    <circle cx="600" cy="520" r="2.4"/>
    <circle cx="680" cy="600" r="2.8"/>
    <circle cx="760" cy="560" r="2.3"/>
    <circle cx="860" cy="520" r="2.6"/>
    <circle cx="940" cy="560" r="2.4"/>
    <circle cx="100" cy="700" r="2.6"/>
    <circle cx="200" cy="760" r="2.3"/>
    <circle cx="260" cy="680" r="2.1"/>
    <circle cx="360" cy="720" r="2.4"/>
    <circle cx="460" cy="680" r="2.2"/>
    <circle cx="560" cy="700" r="2.4"/>
    <circle cx="660" cy="760" r="2.2"/>
    <circle cx="760" cy="720" r="2.3"/>
    <circle cx="840" cy="700" r="2.2"/>
    <circle cx="940" cy="720" r="2.5"/>
    <circle cx="120" cy="880" r="2.3"/>
    <circle cx="220" cy="900" r="2.2"/>
    <circle cx="320" cy="900" r="2.1"/>
    <circle cx="420" cy="860" r="2.4"/>
    <circle cx="520" cy="920" r="2.2"/>
    <circle cx="620" cy="900" r="2.1"/>
    <circle cx="720" cy="880" r="2.2"/>
    <circle cx="820" cy="900" r="2.1"/>
    <circle cx="920" cy="900" r="2.3"/>
  </g>
</svg>
